#!OML:ASF X:\für Bonn\!DataBase\2005_08_10_Bjorn_Final\c3d\bjorn.ASF
:FULLY-SPECIFIED
:DEGREES
466
root 0.326567 18.9584 12.1387 -183.538 -5.69035 179.946
lowerback 1.81119 2.74911 -7.01406
upperback 12.5445 2.52886 -4.27179
thorax 12.4097 -0.0309273 -0.732472
lowerneck 2.45779 -8.74055 -0.0770574
upperneck 3.76652 -12.0497 6.80867
head 1.22798 -6.02869 2.07021
rclavicle 1.11319e-014 0
rhumerus -388.067 -35.4444 278.4
rradius 18.616
rwrist 27.2408
rhand -4.53779 7.96256
rfingers 7.12502
rthumb 21.2375 -20.894
lclavicle 1.11319e-014 0
lhumerus -9.88135 28.4152 82.398
lradius 5.2168
lwrist -56.2403
lhand -19.5011 1.92219
lfingers 7.12502
lthumb 6.82143 31.7923
rfemur -16.5902 -3.17597 14.6501
rtibia 43.1443
rfoot -15.2803 5.49443
rtoes -12.901
lfemur -6.15196 6.19357 -19.5133
ltibia 32.5745
lfoot -16.9991 -7.95717
ltoes -6.04026
467
root 0.317269 18.9593 12.1416 -183.571 -5.53598 179.95
lowerback 1.78947 2.76488 -7.00682
upperback 12.5162 2.5539 -4.33169
thorax 12.3921 -0.0139697 -0.798807
lowerneck 2.42802 -8.85861 -0.15762
upperneck 3.46209 -12.1945 7.074
head 1.16639 -6.10611 2.17136
rclavicle 2.22639e-014 -3.18055e-015
rhumerus -388.865 -35.3137 278.832
rradius 18.5639
rwrist 27.2398
rhand -4.58516 7.95399
rfingers 7.12502
rthumb 21.1919 -20.9077
lclavicle 2.22639e-014 -3.18055e-015
lhumerus -10.5377 28.5616 81.6378
lradius 4.47965
lwrist -58.8204
lhand -18.5161 2.65293
lfingers 7.12502
lthumb 7.77225 32.4901
rfemur -16.5743 -3.10581 14.7611
rtibia 43.2426
rfoot -15.4036 5.01214
rtoes -13.837
lfemur -6.1137 6.20384 -19.5534
ltibia 32.5792
lfoot -16.9687 -7.79582
ltoes -5.82284
468
root 0.307258 18.9602 12.1454 -183.584 -5.38105 179.932
lowerback 1.73977 2.77155 -7.0272
upperback 12.4931 2.57116 -4.3729
thorax 12.3964 -0.00504356 -0.830066
lowerneck 2.34123 -8.96372 -0.264204
upperneck 3.22396 -12.3257 7.29076
head 1.13365 -6.17454 2.25717
rclavicle -4.69132e-014 -8.42847e-014
rhumerus -389.571 -34.9773 279.194
rradius 18.5326
rwrist 27.1114
rhand -4.69082 7.8519
rfingers 7.12502
rthumb 21.0904 -21.0211
lclavicle -4.69132e-014 -8.42847e-014
lhumerus -11.2429 28.7337 80.8885
lradius 3.88905
lwrist -61.1114
lhand -17.27 3.20903
lfingers 7.12502
lthumb 8.97484 32.9981
rfemur -16.5957 -3.07853 14.8356
rtibia 43.3254
rfoot -15.497 4.60535
rtoes -14.293
lfemur -6.08733 6.16862 -19.6317
ltibia 32.5764
lfoot -16.9567 -7.56031
ltoes -5.83725
469
root 0.296525 18.9611 12.1493 -183.587 -5.19909 179.921
lowerback 1.6643 2.78708 -7.01252
upperback 12.4716 2.60253 -4.42987
thorax 12.42 0.0147799 -0.896602
lowerneck 2.30894 -9.07226 -0.300925
upperneck 2.92694 -12.4552 7.50501
head 1.06842 -6.24491 2.33539
rclavicle 3.18055e-015 1.43125e-014
rhumerus -390.266 -34.6877 279.526
rradius 18.5237
rwrist 27.0221
rhand -4.79668 7.81126
rfingers 7.12502
rthumb 20.9888 -21.0731
lclavicle 3.18055e-015 1.43125e-014
lhumerus -11.9911 28.8743 80.0833
lradius 3.39293
lwrist -63.1445
lhand -15.9487 3.65544
lfingers 7.12502
lthumb 10.2497 33.3857
rfemur -16.6329 -3.09192 14.9038
rtibia 43.3876
rfoot -15.5498 4.32121
rtoes -14.1518
lfemur -6.07084 6.15273 -19.7032
ltibia 32.5726
lfoot -16.9481 -7.34818
ltoes -5.59996
470
root 0.28564 18.9623 12.1538 -183.608 -5.02561 179.9
lowerback 1.62045 2.79718 -7.01304
upperback 12.4473 2.62267 -4.47621
thorax 12.4202 0.027426 -0.944147
lowerneck 2.28106 -9.16787 -0.390442
upperneck 2.67987 -12.5748 7.74163
head 1.02349 -6.31063 2.42874
rclavicle 4.29375e-014 -4.29375e-014
rhumerus -390.927 -34.2372 279.795
rradius 18.5394
rwrist 26.842
rhand -4.94003 7.72089
rfingers 7.12502
rthumb 20.851 -21.1786
lclavicle 4.29375e-014 -4.29375e-014
lhumerus -12.8169 29.0173 79.2377
lradius 2.98104
lwrist -65.0166
lhand -14.6005 3.90208
lfingers 7.12502
lthumb 11.55 33.5638
rfemur -16.656 -3.1268 14.9378
rtibia 43.4293
rfoot -15.5557 4.12217
rtoes -13.5539
lfemur -6.03897 6.13041 -19.7863
ltibia 32.5662
lfoot -16.9264 -7.11167
ltoes -5.44142
471
root 0.274967 18.963 12.1582 -183.622 -4.81817 179.88
lowerback 1.55435 2.8066 -7.01518
upperback 12.4286 2.64377 -4.52051
thorax 12.4405 0.0392986 -0.98868
lowerneck 2.20713 -9.25342 -0.447366
upperneck 2.47383 -12.684 7.95095
head 0.995061 -6.36949 2.50478
rclavicle 4.77083e-015 7.95139e-014
rhumerus -391.522 -33.6974 279.979
rradius 18.5992
rwrist 26.536
rhand -5.06996 7.61199
rfingers 7.12502
rthumb 20.7262 -21.3012
lclavicle 4.77083e-015 7.95139e-014
lhumerus -13.7323 29.1736 78.333
lradius 2.70771
lwrist -66.6669
lhand -13.3043 4.0463
lfingers 7.12502
lthumb 12.7998 33.6339
rfemur -16.6822 -3.15083 14.9512
rtibia 43.4466
rfoot -15.5442 4.05137
rtoes -12.5713
lfemur -6.01056 6.16452 -19.8568
ltibia 32.5629
lfoot -16.9326 -6.92687
ltoes -5.34909
